<svg viewBox="0 0 60 60" version="1.1" xmlns="http://www.w3.org/2000/svg">
    <g transform="translate(19, 10.5)">
        <path d="M15.488,1.936 C16.0853363,1.25332992 16.917328,0.912 17.984,0.912 C19.050672,0.912 19.9253299,1.25332992 20.608,1.936 C22.2293414,3.47200768 22.2293414,5.17865728 20.608,7.056 L8.704,19.6 L20.608,32.016 C22.2293414,33.8933427 22.2293414,35.5999923 20.608,37.136 C19.9253299,37.8186701 19.0720051,38.16 18.048,38.16 C17.0239949,38.16 16.1706701,37.8186701 15.488,37.136 L1.024,22.032 C0.34132992,21.3493299 0,20.5173382 0,19.536 C0,18.5546618 0.34132992,17.7226701 1.024,17.04 C9.81337728,7.90928768 14.6346624,2.87467136 15.488,1.936 Z"/>
    </g>
</svg>